<?xml version="1.0" standalone="no"?>
<!DOCTYPE svg PUBLIC "-//W3C//DTD SVG 20010904//EN"
 "http://www.w3.org/TR/2001/REC-SVG-20010904/DTD/svg10.dtd">
<svg version="1.0" xmlns="http://www.w3.org/2000/svg"
 width="606.000000pt" height="606.000000pt" viewBox="0 0 606.000000 606.000000"
 preserveAspectRatio="xMidYMid meet">

<g transform="translate(0.000000,606.000000) scale(0.100000,-0.100000)"
fill="#000000" stroke="none">
<path d="M2004 4574 c20 -38 108 -170 197 -294 88 -124 164 -229 167 -235 9
-15 -17 6 -173 140 -171 147 -182 156 -170 135 12 -21 105 -156 191 -276 40
-56 105 -148 145 -205 l71 -104 -5 100 c-3 55 -11 115 -17 133 -7 18 -10 35
-8 37 5 6 159 -188 172 -215 19 -42 28 -19 21 53 -11 112 -27 151 -92 225
-193 223 -508 565 -525 571 -6 2 6 -27 26 -65z"/>
<path d="M4080 4603 c-18 -21 -67 -74 -109 -118 -116 -122 -414 -454 -433
-483 -17 -27 -43 -171 -37 -211 4 -22 8 -19 40 30 42 62 149 192 154 187 2 -2
-3 -30 -11 -63 -7 -33 -14 -91 -14 -129 l0 -70 32 45 c17 24 80 109 138 189
134 181 243 340 239 345 -2 1 -81 -62 -176 -141 -95 -79 -175 -144 -178 -144
-3 0 55 80 128 178 201 268 240 326 266 395 15 38 -1 34 -39 -10z"/>
<path d="M2835 4021 l-40 -6 61 -27 c105 -48 242 -54 334 -16 l35 15 -55 12
c-49 11 -260 33 -285 29 -5 0 -28 -4 -50 -7z"/>
<path d="M1636 3695 c-9 -26 -7 -32 5 -12 6 10 9 21 6 23 -2 3 -7 -2 -11 -11z"/>
<path d="M4089 3613 c-79 -113 -87 -127 -109 -193 -30 -89 -27 -176 11 -280
33 -93 59 -178 59 -197 0 -8 -27 -13 -85 -15 l-84 -3 35 -52 c39 -59 59 -110
70 -178 6 -46 6 -47 -17 -39 -13 5 -64 9 -114 9 l-90 0 -3 -158 -3 -158 40
-47 c47 -57 105 -151 166 -272 26 -49 50 -90 53 -90 4 0 43 36 87 81 44 44
131 126 194 182 103 92 117 110 156 187 79 159 128 342 145 543 12 136 3 260
-26 406 -19 91 -66 237 -57 176 3 -22 10 -48 14 -57 14 -25 11 -71 -3 -62 -8
5 -9 2 -5 -9 4 -11 1 -17 -9 -17 -8 0 -13 4 -9 9 3 5 1 12 -5 16 -5 3 -10 -2
-10 -12 -1 -16 -2 -16 -13 -2 -7 9 -18 14 -26 11 -8 -3 -11 0 -8 6 4 5 -2 12
-13 15 -11 3 -18 1 -14 -4 3 -5 -2 -9 -10 -9 -19 0 -30 17 -14 23 10 4 10 7 0
18 -11 12 -13 12 -10 1 5 -21 -35 -32 -57 -16 -12 9 -14 14 -5 14 20 0 3 14
-20 15 -11 1 -20 -2 -20 -7 0 -4 -11 -8 -25 -8 -14 0 -25 -4 -25 -10 0 -17
-17 -11 -22 8 -4 15 -13 17 -42 14 -28 -3 -36 -1 -36 12 0 9 -6 16 -12 16 -7
0 -26 12 -43 26 -24 21 -27 27 -15 34 8 6 12 10 8 10 -7 0 29 62 68 118 9 12
14 22 11 22 -2 0 -29 -35 -58 -77z m111 -193 c0 -5 -2 -10 -4 -10 -3 0 -8 5
-11 10 -3 6 -1 10 4 10 6 0 11 -4 11 -10z m287 -82 c-3 -8 -6 -5 -6 6 -1 11 2
17 5 13 3 -3 4 -12 1 -19z"/>
<path d="M1615 3649 c-4 -6 -5 -12 -2 -15 2 -3 7 2 10 11 7 17 1 20 -8 4z"/>
<path d="M1993 3628 c26 -37 67 -110 83 -146 l14 -34 -29 7 c-25 5 -30 3 -34
-17 -3 -18 -5 -17 -6 8 -1 29 -3 30 -46 30 -25 -1 -45 -5 -45 -9 0 -5 -5 -5
-10 -2 -6 4 -8 11 -5 16 4 5 1 9 -5 9 -7 0 -10 -6 -7 -14 4 -10 -2 -16 -21
-18 -15 -2 -27 -8 -27 -13 0 -6 -7 -18 -15 -26 -14 -15 -17 -14 -39 10 -13 14
-20 21 -17 14 8 -15 -44 -64 -58 -56 -6 4 -6 8 2 11 29 9 -1 19 -35 12 -26 -6
-40 -5 -45 3 -5 8 -8 6 -8 -5 0 -10 5 -18 10 -18 6 0 10 -4 10 -8 0 -4 -16 -8
-35 -8 -19 0 -35 4 -35 10 0 5 -7 1 -15 -10 -8 -10 -15 -14 -15 -9 0 6 -5 3
-10 -5 -7 -11 -8 -3 -4 25 3 22 8 43 11 47 4 8 9 29 18 83 8 50 -42 -106 -60
-186 -9 -43 -19 -144 -22 -244 -6 -205 14 -349 76 -535 136 -405 444 -757 851
-974 68 -36 223 -106 235 -106 2 0 6 17 9 38 4 20 24 102 46 182 l38 145 4
278 3 279 -90 74 c-103 84 -236 157 -321 174 -56 12 -153 9 -218 -6 l-28 -7 7
44 c12 83 35 147 70 199 19 29 35 54 35 57 0 3 -39 3 -86 2 l-85 -4 6 35 c4
19 23 77 42 129 75 200 61 323 -54 494 -25 37 -48 67 -50 67 -3 0 2 -10 10
-22z m-23 -172 c0 -2 -7 -6 -15 -10 -8 -3 -15 -1 -15 4 0 6 7 10 15 10 8 0 15
-2 15 -4z"/>
<path d="M4496 3577 c3 -10 9 -15 12 -12 3 3 0 11 -7 18 -10 9 -11 8 -5 -6z"/>
<path d="M4415 3440 c-4 -6 3 -10 14 -10 25 0 27 6 6 13 -8 4 -17 2 -20 -3z"/>
<path d="M1561 3384 c0 -11 3 -14 6 -6 3 7 2 16 -1 19 -3 4 -6 -2 -5 -13z"/>
<path d="M2749 3126 c70 -114 151 -287 133 -285 -4 0 -31 31 -59 69 -119 155
-317 239 -508 215 -63 -7 -62 -13 7 -39 70 -26 93 -49 139 -136 72 -139 134
-185 268 -201 42 -5 89 -14 104 -21 39 -15 103 -91 127 -152 l21 -51 -5 84
c-8 129 -45 319 -74 381 -26 55 -97 134 -160 179 l-33 23 40 -66z"/>
<path d="M3321 3141 c-73 -58 -114 -108 -142 -170 -24 -54 -47 -194 -55 -336
l-6 -100 30 60 c16 33 50 79 75 103 26 23 48 42 49 42 2 0 40 4 86 10 136 15
209 66 268 182 14 29 38 68 51 87 25 33 111 81 146 81 29 0 19 17 -14 24 -67
13 -196 6 -263 -14 -98 -31 -204 -107 -278 -200 -35 -43 -64 -77 -66 -76 -10
11 95 217 160 314 16 23 27 42 24 42 -3 0 -32 -22 -65 -49z"/>
<path d="M2950 2432 c0 -26 54 -108 80 -122 19 -10 26 -8 52 17 35 33 58 74
58 103 0 19 -6 20 -95 20 -85 0 -95 -2 -95 -18z"/>
<path d="M3590 1711 c-49 -50 -107 -95 -170 -132 -52 -31 -178 -107 -280 -168
-210 -127 -306 -176 -379 -194 -39 -9 -50 -15 -45 -27 3 -8 8 -32 11 -52 3
-21 11 -38 17 -38 31 0 142 68 466 285 195 130 368 249 383 263 26 25 84 129
76 135 -2 2 -38 -31 -79 -72z"/>
<path d="M3284 1269 c-38 -23 -76 -48 -84 -55 -29 -28 35 -15 76 15 38 28 92
81 83 81 -3 0 -36 -19 -75 -41z"/>
</g>
</svg>
